<svg xmlns="http://www.w3.org/2000/svg" viewBox="0 0 120 160" fill="none" stroke="currentColor" stroke-linecap="round" stroke-linejoin="round">
  <!-- Fern Stem -->
  <path d="M60 150 C58 110 52 60 76 14" stroke="#244835" stroke-width="2.2" />
  <!-- Pinnate Fern Leaflets (Left & Right) -->
  <!-- Pair 1 -->
  <path d="M59 135 C46 132 36 128 26 132 C38 139 50 138 59 135 Z" fill="#E3EFE7" stroke="#244835" stroke-width="1.4" />
  <path d="M59 130 C72 126 84 121 94 124 C82 133 70 132 59 130 Z" fill="#E3EFE7" stroke="#244835" stroke-width="1.4" />
  <!-- Pair 2 -->
  <path d="M58 115 C44 110 32 104 22 108 C35 116 48 116 58 115 Z" fill="#E3EFE7" stroke="#244835" stroke-width="1.4" />
  <path d="M58 110 C72 104 86 98 96 100 C83 111 70 110 58 110 Z" fill="#E3EFE7" stroke="#244835" stroke-width="1.4" />
  <!-- Pair 3 -->
  <path d="M57 95 C43 88 32 80 20 84 C34 93 47 94 57 95 Z" fill="#E3EFE7" stroke="#244835" stroke-width="1.4" />
  <path d="M57 90 C72 82 85 75 94 77 C81 89 69 88 57 90 Z" fill="#E3EFE7" stroke="#244835" stroke-width="1.4" />
  <!-- Pair 4 -->
  <path d="M56 75 C43 67 34 58 24 61 C37 71 48 72 56 75 Z" fill="#E3EFE7" stroke="#244835" stroke-width="1.4" />
  <path d="M57 70 C71 61 82 53 90 55 C78 68 67 67 57 70 Z" fill="#E3EFE7" stroke="#244835" stroke-width="1.4" />
  <!-- Pair 5 -->
  <path d="M57 56 C46 48 38 40 30 42 C42 51 51 52 57 56 Z" fill="#E3EFE7" stroke="#244835" stroke-width="1.4" />
  <path d="M59 52 C71 43 80 36 86 37 C75 49 67 48 59 52 Z" fill="#E3EFE7" stroke="#244835" stroke-width="1.4" />
  <!-- Tip -->
  <path d="M62 38 C54 30 48 24 44 26 C53 32 59 34 62 38 Z" fill="#E3EFE7" stroke="#244835" stroke-width="1.4" />
  <path d="M64 34 C72 26 78 20 82 22 C74 30 69 31 64 34 Z" fill="#E3EFE7" stroke="#244835" stroke-width="1.4" />
  <path d="M76 14 C73 20 68 28 66 30 C71 26 75 20 76 14 Z" fill="#244835" stroke="#244835" stroke-width="1.2" />
</svg>
